<svg width="57" height="60" viewBox="0 0 57 60" fill="none" xmlns="http://www.w3.org/2000/svg">
<path d="M17.1743 7.85359C16.7523 7.24286 15.9215 7.09445 15.3188 7.5221C13.5107 8.80509 13.0713 11.3304 14.3375 13.1627L25.1189 28.7646L19.3339 37.1366L19.3283 37.1445C18.8924 37.0646 18.4432 37.0228 17.9845 37.0228C13.8488 37.0228 10.4961 40.42 10.4961 44.6109C10.4961 48.8018 13.8488 52.1992 17.9845 52.1992C22.1202 52.1992 25.4729 48.8018 25.4729 44.6109C25.4729 42.8541 24.8837 41.2367 23.8946 39.9508L28.3717 33.472L32.8949 40.0178C31.9368 41.2929 31.3677 42.8846 31.3677 44.6109C31.3677 48.8018 34.7204 52.1992 38.8562 52.1992C42.9919 52.1992 46.3447 48.8018 46.3447 44.6109C46.3447 40.42 42.9919 37.0228 38.8562 37.0228C38.3671 37.0228 37.8892 37.0703 37.4264 37.1608L17.1743 7.85359ZM14.0487 44.6109C14.0487 42.4084 15.8108 40.6228 17.9845 40.6228C20.1581 40.6228 21.9202 42.4084 21.9202 44.6109C21.9202 46.8136 20.1581 48.5992 17.9845 48.5992C15.8108 48.5992 14.0487 46.8136 14.0487 44.6109ZM34.9203 44.6109C34.9203 42.4084 36.6824 40.6228 38.8562 40.6228C41.0299 40.6228 42.792 42.4084 42.792 44.6109C42.792 46.8136 41.0299 48.5992 38.8562 48.5992C36.6824 48.5992 34.9203 46.8136 34.9203 44.6109Z" fill="#2B180A"/>
<path d="M29.8184 21.9633L33.0711 26.6704L42.4098 13.1553C43.676 11.3231 43.2364 8.79771 41.4284 7.51477C40.8256 7.08711 39.995 7.23555 39.5729 7.84633L29.8184 21.9633Z" fill="#2B180A"/>
</svg>
