<svg width="71" height="93" viewBox="0 0 71 93" fill="none" xmlns="http://www.w3.org/2000/svg">
<path d="M8.03857 1.00136e-05H62.1166C63.308 1.00136e-05 64.3861 0.48829 65.1674 1.26951L65.1791 1.28123C65.9603 2.07029 66.4486 3.14063 66.4486 4.33203V11.6718C66.4486 12.8632 65.9603 13.9413 65.1791 14.7304L65.1674 14.7421C64.8861 15.0117 64.5775 15.2539 64.2377 15.4531C64.8275 16.7226 65.3783 18.0312 65.8783 19.375C65.9095 19.4453 65.9369 19.5234 65.9564 19.5937C68.7455 27.1523 70.1556 35.7147 70.1556 44.2347C70.1556 53.7659 68.3939 63.2937 64.8548 71.3437C61.2767 79.5039 55.8431 86.1717 48.5658 89.8637C44.6049 91.8832 40.1049 93.0043 35.0778 93.0043C30.0466 93.0043 25.5466 91.8832 21.5898 89.8637C14.3007 86.1723 8.8788 79.5047 5.3008 71.3437C1.7617 63.2929 0 53.7657 0 44.2347C0 35.7152 1.4102 27.1567 4.1992 19.5937C4.21873 19.5234 4.24998 19.4531 4.27733 19.375C4.77733 18.0352 5.32813 16.7266 5.91793 15.4531C5.57809 15.2539 5.25776 15.0117 4.98823 14.7343L4.97652 14.7226C4.18746 13.9414 3.70702 12.8632 3.70702 11.6718V4.33202C3.70702 3.14062 4.1953 2.06252 4.97652 1.28122L4.98823 1.2695C5.76948 0.48825 6.84717 1.00136e-05 8.03857 1.00136e-05ZM30.7886 59.488H39.3667V49.136C39.3667 47.9563 38.8862 46.886 38.105 46.1048C37.3237 45.3236 36.2534 44.8431 35.0738 44.8431C33.8941 44.8431 32.8238 45.3236 32.0426 46.1048C31.2614 46.886 30.7809 47.9564 30.7809 49.136V59.488H30.7886ZM39.3667 62.488H30.7886V63.8161C30.7886 64.9958 31.269 66.0661 32.0503 66.8473C32.8315 67.6285 33.9019 68.1168 35.0815 68.1168C36.2612 68.1168 37.3315 67.6285 38.1127 66.8473C38.8939 66.0661 39.3744 64.9957 39.3744 63.8161V62.488H39.3667ZM35.0776 41.847C37.0893 41.847 38.9057 42.6673 40.226 43.9876C41.5463 45.3079 42.3666 47.136 42.3666 49.136V63.812C42.3666 65.8237 41.5463 67.6401 40.226 68.9604C38.9057 70.2807 37.0854 71.1088 35.0776 71.1088C33.0659 71.1088 31.2495 70.2807 29.9292 68.9604C28.6089 67.6401 27.7886 65.8198 27.7886 63.812V49.136C27.7886 47.136 28.6089 45.3079 29.9292 43.9876C31.2495 42.6673 33.0698 41.847 35.0776 41.847ZM53.6286 33.7689V62.7379C53.6286 67.8395 51.5388 72.4684 48.1794 75.8279C44.82 79.199 40.1794 81.2888 35.0774 81.2888C29.9754 81.2888 25.3391 79.199 21.9754 75.8279C18.616 72.4685 16.5262 67.8396 16.5262 62.7379V33.7689L6.24517 22.8279C4.08497 29.4881 2.99517 36.8589 2.99517 44.2259C2.99517 53.3743 4.66706 62.4759 8.03426 70.1359C11.3546 77.6867 16.3155 83.8349 22.9323 87.1869C26.4831 88.9877 30.5221 89.9955 35.0733 89.9955C39.6241 89.9955 43.6631 88.9838 47.2143 87.1869C53.8354 83.8353 58.7923 77.6869 62.1123 70.1359C65.4834 62.4757 67.1514 53.3739 67.1514 44.2259C67.1514 36.8548 66.0616 29.4879 63.9014 22.8279L53.6204 33.7689H53.6286ZM19.5266 34.6791V62.7381C19.5266 67.0076 21.2766 70.91 24.0969 73.7181C26.9055 76.5384 30.7961 78.2884 35.0769 78.2884C39.3577 78.2884 43.2488 76.5384 46.0569 73.7181C48.8772 70.9095 50.6272 67.0072 50.6272 62.7381V34.6791H19.5266ZM7.83556 18.4991H62.3156C61.9562 17.6475 61.5851 16.8194 61.1867 15.9991H8.96767C8.56923 16.8194 8.19814 17.6475 7.83877 18.4991H7.83556ZM61.0466 21.4991H9.10557L18.6642 31.6791H51.4842L61.0428 21.4991H61.0466ZM12.9056 6.06907C12.9056 5.24095 13.5853 4.56907 14.4056 4.56907C15.2337 4.56907 15.9056 5.24095 15.9056 6.06907V9.92847C15.9056 10.7566 15.2337 11.4285 14.4056 11.4285C13.5853 11.4285 12.9056 10.7566 12.9056 9.92847V6.06907ZM21.1751 6.06907C21.1751 5.24095 21.8469 4.56907 22.6751 4.56907C23.5032 4.56907 24.1751 5.24095 24.1751 6.06907V9.92847C24.1751 10.7566 23.5032 11.4285 22.6751 11.4285C21.8469 11.4285 21.1751 10.7566 21.1751 9.92847V6.06907ZM29.4446 6.06907C29.4446 5.24095 30.1164 4.56907 30.9446 4.56907C31.7727 4.56907 32.4446 5.24095 32.4446 6.06907V9.92847C32.4446 10.7566 31.7727 11.4285 30.9446 11.4285C30.1164 11.4285 29.4446 10.7566 29.4446 9.92847V6.06907ZM37.7063 6.06907C37.7063 5.24095 38.3781 4.56907 39.2063 4.56907C40.0344 4.56907 40.7063 5.24095 40.7063 6.06907V9.92847C40.7063 10.7566 40.0344 11.4285 39.2063 11.4285C38.3781 11.4285 37.7063 10.7566 37.7063 9.92847V6.06907ZM45.9758 6.06907C45.9758 5.24095 46.6476 4.56907 47.4758 4.56907C48.3039 4.56907 48.9758 5.24095 48.9758 6.06907V9.92847C48.9758 10.7566 48.3039 11.4285 47.4758 11.4285C46.6476 11.4285 45.9758 10.7566 45.9758 9.92847V6.06907ZM54.2453 6.06907C54.2453 5.24095 54.9171 4.56907 55.7453 4.56907C56.5656 4.56907 57.2453 5.24095 57.2453 6.06907V9.92847C57.2453 10.7566 56.5656 11.4285 55.7453 11.4285C54.9171 11.4285 54.2453 10.7566 54.2453 9.92847V6.06907ZM62.1164 2.99877H8.03837C7.66728 2.99877 7.33915 3.14721 7.09696 3.38939C6.85868 3.62767 6.70634 3.9597 6.70634 4.3308V11.6706C6.70634 12.0417 6.85478 12.3815 7.08525 12.612C7.33525 12.862 7.66337 13.0026 8.03446 13.0026H62.1125C62.4836 13.0026 62.8117 12.862 63.0539 12.6237C63.2922 12.3854 63.4445 12.0456 63.4445 11.6745V4.3347C63.4445 3.96361 63.2961 3.63548 63.0539 3.39329C62.8156 3.15501 62.4836 3.00267 62.1125 3.00267L62.1164 2.99877Z" fill="#2B180A"/>
</svg>
