<svg width="48" height="64" viewBox="0 0 48 64" fill="none" xmlns="http://www.w3.org/2000/svg">
<path d="M44.2204 44.68C43.9204 44.55 43.5904 44.44 43.2604 44.37C42.8504 44.29 42.4604 44.54 42.3704 44.95C42.2904 45.36 42.5504 45.75 42.9504 45.84C43.1804 45.89 43.4004 45.96 43.6104 46.05C45.3004 46.79 46.0804 48.78 45.3404 50.47C44.6004 52.16 42.6204 52.94 40.9204 52.2C40.3004 51.93 39.7804 51.48 39.4204 50.9C39.3004 50.71 39.1004 50.58 38.8704 50.55C38.6404 50.52 38.4204 50.6 38.2604 50.76C37.2904 51.71 35.8704 51.97 34.6304 51.43C34.3504 51.31 34.0904 51.13 33.8004 50.88C33.6004 50.7 33.3204 50.65 33.0604 50.74C32.8104 50.83 32.6204 51.05 32.5704 51.31C32.5204 51.59 32.4504 51.82 32.3604 52.03C31.6304 53.7 29.6804 54.46 28.0104 53.73C26.4404 53.04 25.6704 51.23 26.2404 49.61C26.3204 49.39 26.2904 49.14 26.1604 48.94C26.0304 48.74 25.8104 48.62 25.5804 48.61C25.2904 48.59 25.0404 48.53 24.8004 48.43C24.2404 48.19 23.8204 47.74 23.5904 47.18C23.3704 46.61 23.3804 46 23.6304 45.44C24.1304 44.29 25.4804 43.77 26.6204 44.27C26.9404 44.41 27.2204 44.63 27.4604 44.92C27.6804 45.18 28.0404 45.27 28.3504 45.13C28.6604 44.99 28.8404 44.66 28.7804 44.32C28.7304 44.04 28.7704 43.76 28.8804 43.51C29.1904 42.79 30.0304 42.47 30.7404 42.78C30.8104 42.81 30.8704 42.85 30.9304 42.89C31.1404 43.02 31.4004 43.04 31.6204 42.95C31.8404 42.86 32.0104 42.65 32.0604 42.41C32.1204 42.15 32.2004 41.89 32.3104 41.64C33.1004 39.84 35.0504 38.92 36.9004 39.37H36.9104C37.1304 39.42 37.3504 39.49 37.5704 39.58C39.1804 40.29 40.1204 41.94 39.9104 43.71C39.8604 44.12 40.1504 44.49 40.5704 44.54C40.9704 44.59 41.3504 44.3 41.4004 43.88C41.6904 41.46 40.3904 39.17 38.1704 38.2C38.1004 38.17 38.0204 38.14 37.9504 38.12V23.77C37.9504 18.98 34.2604 15.03 29.5604 14.63V9.88C29.5604 9.47 29.2204 9.13 28.8104 9.13H27.4004V6.2C27.4904 6.26 27.5904 6.32 27.6804 6.38C28.6904 7.11 30.1104 6.89 30.8504 5.88C31.2104 5.39 31.3504 4.79 31.2604 4.19C31.1704 3.59 30.8404 3.06 30.3504 2.71C27.9504 0.96 24.9504 0 21.8904 0C18.2704 0 14.8604 1.29 12.2804 3.63C11.8304 4.04 11.5704 4.6 11.5404 5.2C11.5104 5.81 11.7204 6.39 12.1304 6.83C12.5204 7.26 13.1004 7.52 13.7104 7.55C13.7504 7.55 13.7804 7.55 13.8204 7.55C14.3904 7.55 14.9404 7.34 15.3404 6.98C16.8304 5.63 18.7104 4.83 20.6604 4.59V9.11H19.2504C18.8404 9.11 18.5004 9.45 18.5004 9.86V14.61C13.8104 15.02 10.1104 18.96 10.1104 23.75V44.52C7.92039 45.14 6.25039 47.03 5.97039 49.34C5.92039 49.75 6.21039 50.13 6.62039 50.17C7.04039 50.22 7.41039 49.93 7.45039 49.52C7.64039 47.96 8.68039 46.65 10.1004 46.08V51.5C8.49039 51.96 7.30039 53.42 7.30039 55.18C7.30039 55.46 7.33039 55.73 7.39039 55.99C6.70039 56.28 5.93039 56.55 5.41039 56.55C3.89039 56.55 2.66039 55.32 2.66039 53.8C2.66039 52.42 3.70039 51.26 5.07039 51.09C5.48039 51.04 5.77039 50.66 5.72039 50.25C5.67039 49.84 5.29039 49.55 4.88039 49.6C2.76039 49.86 1.15039 51.67 1.15039 53.8C1.15039 56.14 3.06039 58.05 5.40039 58.05C6.17039 58.05 7.10039 57.73 7.98039 57.37C8.48039 58.09 9.23039 58.62 10.1004 58.87V59.1C10.1004 61.26 11.8604 63.01 14.0104 63.01H34.0004C36.1604 63.01 37.9104 61.25 37.9104 59.1V52.78C38.1504 52.67 38.3904 52.54 38.6204 52.39C39.0804 52.9 39.6404 53.31 40.2804 53.59C42.7304 54.66 45.6004 53.54 46.6804 51.09C47.7904 48.62 46.6704 45.75 44.2204 44.68ZM14.3504 5.88C14.2104 6.01 14.0104 6.07 13.8004 6.06C13.5904 6.05 13.3904 5.96 13.2604 5.83C13.1204 5.68 13.0504 5.48 13.0604 5.27C13.0704 5.06 13.1604 4.88 13.3104 4.74C15.6104 2.65 18.6604 1.5 21.9104 1.5C24.6504 1.5 27.3404 2.36 29.4904 3.92C29.6604 4.04 29.7704 4.22 29.8004 4.42C29.8304 4.63 29.7804 4.83 29.6604 4.99C29.4104 5.33 28.9204 5.41 28.5804 5.16C26.4904 3.64 23.9604 2.94 21.4604 3.04C21.4504 3.04 21.4504 3.04 21.4404 3.04C21.4304 3.04 21.4204 3.04 21.4204 3.04C18.8304 3.16 16.3004 4.11 14.3504 5.88ZM22.1804 4.53C23.4604 4.57 24.7304 4.85 25.9104 5.37V9.13H22.1804V4.53ZM28.0704 10.63V14.59H20.0204V10.63H28.0704ZM9.03039 56.11C9.03039 56.1 9.03039 56.1 9.02039 56.1C8.90039 55.82 8.83039 55.51 8.83039 55.18C8.83039 53.89 9.88039 52.84 11.1704 52.84C12.3504 52.84 13.3404 53.73 13.4804 54.91C13.5104 55.13 13.6304 55.33 13.8104 55.45C13.9904 55.57 14.2204 55.61 14.4404 55.54C14.5504 55.51 14.6404 55.49 14.7204 55.49C15.2804 55.49 15.7304 55.94 15.7304 56.5C15.7304 57.06 15.2804 57.51 14.7204 57.51H11.1804C10.2104 57.52 9.39039 56.94 9.03039 56.11ZM36.4504 59.09C36.4504 60.42 35.3704 61.5 34.0404 61.5H14.0504C12.7204 61.5 11.6404 60.42 11.6404 59.09V59.02H14.7204C16.1004 59.02 17.2304 57.89 17.2304 56.51C17.2304 55.16 16.1604 54.05 14.8204 54C14.3704 52.59 13.1304 51.56 11.6504 51.38V45.12V23.77C11.6504 19.53 15.1004 16.08 19.3404 16.08H28.7904C33.0304 16.08 36.4704 19.53 36.4704 23.77V37.78C34.1904 37.58 31.9304 38.83 30.9604 41.04C30.9304 41.11 30.9004 41.18 30.8804 41.25C29.5304 40.93 28.1004 41.6 27.5304 42.92C27.5204 42.95 27.5004 42.99 27.4904 43.02C27.4104 42.98 27.3304 42.94 27.2504 42.91C25.3404 42.07 23.1104 42.95 22.2804 44.85C21.4504 46.76 22.3204 48.98 24.2204 49.82C24.3504 49.88 24.4904 49.93 24.6304 49.97C24.2904 52.08 25.4104 54.24 27.4304 55.12C28.0504 55.39 28.7104 55.52 29.3504 55.52C31.1904 55.52 32.9504 54.45 33.7504 52.67C33.8504 52.73 33.9604 52.78 34.0604 52.82C34.8404 53.16 35.6804 53.28 36.4804 53.2V59.09H36.4504Z" fill="black"/>
<path d="M45.27 41.1399C46.7 41.1399 47.87 39.9699 47.87 38.5399C47.87 37.1099 46.7 35.9399 45.27 35.9399C43.84 35.9399 42.67 37.1099 42.67 38.5399C42.66 39.9699 43.83 41.1399 45.27 41.1399ZM45.27 37.4399C45.88 37.4399 46.37 37.9299 46.37 38.5399C46.37 39.1499 45.88 39.6399 45.27 39.6399C44.66 39.6399 44.17 39.1499 44.17 38.5399C44.16 37.9299 44.66 37.4399 45.27 37.4399Z" fill="black"/>
<path d="M5.46 45.5C5.46 43.99 4.23 42.77 2.73 42.77C1.22 42.77 0 44 0 45.5C0 47 1.23 48.23 2.73 48.23C4.24 48.24 5.46 47.01 5.46 45.5ZM1.49 45.5C1.49 44.82 2.04 44.27 2.72 44.27C3.4 44.27 3.95 44.82 3.95 45.5C3.95 46.18 3.4 46.73 2.72 46.73C2.05 46.74 1.49 46.18 1.49 45.5Z" fill="black"/>
<path d="M10.5396 16.52C12.1596 16.52 13.4696 15.2 13.4696 13.59C13.4696 12.27 11.5796 8.60996 11.1996 7.88996C10.9396 7.39996 10.1296 7.39996 9.86961 7.88996C9.48961 8.60996 7.59961 12.27 7.59961 13.59C7.59961 15.21 8.91961 16.52 10.5396 16.52ZM10.5396 9.89996C11.3096 11.49 11.9696 13.1 11.9696 13.59C11.9696 14.38 11.3296 15.02 10.5396 15.02C9.74961 15.02 9.10961 14.38 9.10961 13.59C9.09961 13.1 9.76961 11.49 10.5396 9.89996Z" fill="black"/>
<path d="M25.0906 28.1598C25.4806 28.1598 25.7906 27.8498 25.7906 27.4598C25.7906 27.0698 25.4806 26.7598 25.0906 26.7598C24.7006 26.7598 24.3906 27.0698 24.3906 27.4598C24.3906 27.8498 24.7006 28.1598 25.0906 28.1598Z" fill="black"/>
<path d="M34.4197 29.0902C34.4197 23.3702 29.7697 18.7202 24.0497 18.7202C18.3297 18.7202 13.6797 23.3702 13.6797 29.0902C13.6797 30.6302 14.0297 32.0902 14.6297 33.4102V33.4202C16.2797 36.9802 19.8697 39.4602 24.0397 39.4602C29.7597 39.4602 34.4197 34.8102 34.4197 29.0902ZM24.0497 20.2202C28.9397 20.2202 32.9197 24.2002 32.9197 29.0902C32.9197 33.9802 28.9397 37.9602 24.0497 37.9602C23.2397 37.9602 22.4497 37.8402 21.7097 37.6402C21.7297 37.5302 21.7597 37.4202 21.7897 37.3102C22.2797 35.7602 23.5797 33.0502 26.8297 32.3402C28.0697 32.3202 29.2297 31.8302 30.1097 30.9502C31.0097 30.0502 31.4997 28.8602 31.4997 27.5902V26.7802C31.4997 26.5802 31.4197 26.3902 31.2797 26.2502C31.1397 26.1102 30.9497 26.0302 30.7497 26.0302L27.7997 26.0402C26.9597 25.2702 24.0397 22.9602 20.8797 24.3402C20.5197 24.4602 19.2597 25.0502 18.3797 27.4202C18.2097 27.8902 18.0497 28.4202 17.9197 29.0302C17.9097 29.1002 17.5497 30.5702 15.6597 31.9202C15.3597 31.0302 15.1897 30.0802 15.1897 29.0902C15.1697 24.2002 19.1497 20.2202 24.0497 20.2202ZM16.2597 33.3302C17.5397 32.4802 18.2997 31.5502 18.7497 30.8002C18.9497 31.2102 19.1897 31.5802 19.4797 31.8902C20.0397 32.4802 20.7197 32.8002 21.3997 32.8002C21.5197 32.8002 21.6397 32.7902 21.7497 32.7702C23.3197 32.5102 24.2697 30.6202 23.9097 28.4802C23.7697 27.6502 23.4497 26.9002 22.9997 26.3102C22.7497 25.9802 22.2797 25.9202 21.9497 26.1702C21.6197 26.4202 21.5597 26.8902 21.8097 27.2202C22.1197 27.6202 22.3397 28.1502 22.4297 28.7302C22.6597 30.1102 22.1297 31.1902 21.4997 31.2902C21.0997 31.3602 20.7397 31.0502 20.5597 30.8602C20.1797 30.4602 19.8997 29.8402 19.7897 29.1702C19.7097 28.7002 19.7197 28.2302 19.8197 27.8102C20.4897 26.0802 21.3197 25.7702 21.3097 25.7702C21.3497 25.7602 21.3897 25.7402 21.4297 25.7302C24.1597 24.5102 26.9197 27.2902 26.9497 27.3102C27.0897 27.4502 27.2797 27.5402 27.4897 27.5402H29.9897V27.5902C29.9897 28.4502 29.6497 29.2702 29.0397 29.8902C28.4197 30.5102 27.6097 30.8402 26.7397 30.8402C26.6897 30.8402 26.6397 30.8502 26.5897 30.8602C22.3897 31.7402 20.8297 35.3502 20.3497 36.8602C20.3197 36.9502 20.3097 37.0302 20.2897 37.1202C18.5797 36.3102 17.1597 34.9802 16.2597 33.3302Z" fill="black"/>
</svg>
