<svg width="28" height="51" viewBox="0 0 28 51" fill="none" xmlns="http://www.w3.org/2000/svg">
<path d="M0.927619 1.6027e-05C0.805325 0.000492786 0.684323 0.0250528 0.571521 0.0722934C0.458719 0.119534 0.356326 0.18853 0.270189 0.275343C0.184052 0.362155 0.115858 0.465084 0.0694999 0.578252C0.0231419 0.691419 -0.000471492 0.81261 7.13278e-06 0.934903V4.6599V6.59697C7.13278e-06 9.32298 1.694 11.6608 4.09423 12.5992C3.95098 13.039 3.85157 13.4974 3.7923 13.9688H0.927619C0.680643 13.9697 0.444174 14.0688 0.270218 14.2441C0.0962617 14.4194 -0.00093472 14.6567 7.13278e-06 14.9036V23.2831C0.000965092 23.5288 0.0990022 23.7642 0.272756 23.9379C0.44651 24.1117 0.681896 24.2097 0.927619 24.2107C1.05007 24.2114 1.17145 24.188 1.28483 24.1417C1.39821 24.0955 1.50135 24.0273 1.58836 23.9412C1.67536 23.855 1.74452 23.7525 1.79188 23.6396C1.83923 23.5267 1.86385 23.4055 1.86433 23.2831V15.8313H3.72682V42.8411C3.72682 46.9523 7.06745 50.293 11.1786 50.293H16.7607C20.8719 50.293 24.2125 46.9523 24.2125 42.8411V14.9036C24.2125 14.0993 24.0798 13.3253 23.8433 12.5992C26.2435 11.6608 27.9375 9.32298 27.9375 6.59697V4.65808V0.934903C27.938 0.811997 27.9141 0.690212 27.8673 0.576569C27.8205 0.462926 27.7517 0.359674 27.6647 0.272766C27.5778 0.185858 27.4746 0.117013 27.3609 0.0702006C27.2473 0.0233885 27.1255 -0.000464914 27.0026 1.6027e-05C26.8803 0.000492847 26.7593 0.0250527 26.6465 0.0722934C26.5337 0.119534 26.4313 0.188531 26.3452 0.275343C26.259 0.362156 26.1908 0.465084 26.1445 0.578252C26.0981 0.691419 26.0745 0.81261 26.075 0.934903V3.72683H24.2125V0.934903C24.213 0.81261 24.1894 0.691419 24.143 0.578252C24.0966 0.465084 24.0285 0.362156 23.9423 0.275343C23.8562 0.188531 23.7538 0.119534 23.641 0.0722934C23.5282 0.0250527 23.4072 0.000492847 23.2849 1.6027e-05C23.1618 -0.000705858 23.0398 0.0229697 22.926 0.069674C22.8121 0.116378 22.7087 0.185185 22.6216 0.272117C22.5345 0.35905 22.4655 0.462384 22.4185 0.576146C22.3716 0.689909 22.3477 0.811844 22.3482 0.934903V3.72683H20.4857V0.934903C20.4862 0.81261 20.4625 0.691419 20.4162 0.578252C20.3698 0.465084 20.3016 0.362156 20.2155 0.275343C20.1294 0.188531 20.027 0.119534 19.9142 0.0722934C19.8014 0.0250527 19.6804 0.000492847 19.5581 1.6027e-05C19.4352 -0.000464914 19.3134 0.0233885 19.1997 0.0702006C19.0861 0.117013 18.9828 0.185858 18.8959 0.272766C18.809 0.359674 18.7402 0.462926 18.6934 0.576569C18.6466 0.690212 18.6227 0.811997 18.6232 0.934903V3.72683H16.7607V0.934903C16.7612 0.81261 16.7375 0.691419 16.6912 0.578252C16.6448 0.465084 16.5766 0.362156 16.4905 0.275343C16.4044 0.188531 16.302 0.119534 16.1892 0.0722934C16.0764 0.0250527 15.9554 0.000492847 15.8331 1.6027e-05C15.71 -0.000705858 15.588 0.0229697 15.4742 0.069674C15.3603 0.116378 15.2569 0.185185 15.1698 0.272117C15.0827 0.35905 15.0136 0.462384 14.9667 0.576146C14.9198 0.689909 14.8959 0.811844 14.8964 0.934903V3.72683H13.0339V0.934903C13.0343 0.81261 13.0107 0.691419 12.9644 0.578252C12.918 0.465084 12.8498 0.362156 12.7637 0.275343C12.6775 0.188531 12.5752 0.119534 12.4624 0.0722934C12.3495 0.0250527 12.2285 0.000492847 12.1063 1.6027e-05C11.984 0.000492847 11.863 0.0250527 11.7502 0.0722934C11.6374 0.119534 11.535 0.188531 11.4488 0.275343C11.3627 0.362156 11.2945 0.465084 11.2481 0.578252C11.2018 0.691419 11.1782 0.81261 11.1786 0.934903V3.72683H9.31614V0.934903C9.31662 0.811844 9.29271 0.689909 9.24579 0.576146C9.19886 0.462384 9.12985 0.35905 9.04275 0.272117C8.95565 0.185185 8.85218 0.116378 8.73833 0.069674C8.62448 0.0229697 8.50249 -0.000705858 8.37944 1.6027e-05C8.25714 0.000492847 8.13614 0.0250527 8.02334 0.0722934C7.91054 0.119534 7.80814 0.188531 7.72201 0.275343C7.63587 0.362156 7.56767 0.465084 7.52132 0.578252C7.47496 0.691419 7.45134 0.81261 7.45182 0.934903V3.72683H5.58932V0.934903C5.58981 0.811997 5.56595 0.690212 5.51914 0.576569C5.47233 0.462926 5.40348 0.359674 5.31657 0.272766C5.22967 0.185858 5.12641 0.117013 5.01277 0.0702006C4.89913 0.0233885 4.77734 -0.000464914 4.65444 1.6027e-05C4.53214 0.000492847 4.41114 0.0250527 4.29834 0.0722934C4.18554 0.119534 4.08314 0.188531 3.99701 0.275343C3.91087 0.362156 3.84268 0.465084 3.79632 0.578252C3.74996 0.691419 3.72635 0.81261 3.72682 0.934903V3.72683H1.86433V0.934903C1.86481 0.811844 1.84089 0.689909 1.79397 0.576146C1.74704 0.462383 1.67804 0.359049 1.59094 0.272117C1.50383 0.185185 1.40037 0.116378 1.28651 0.0696735C1.17266 0.0229693 1.05068 -0.00070592 0.927619 1.6027e-05ZM1.86251 5.58933H26.075V6.59697C26.075 8.60565 24.7818 10.2266 23.0066 10.8531C22.0097 9.32003 20.4663 8.18155 18.6523 7.70465C18.6456 7.70289 18.639 7.70094 18.6323 7.6992C18.3724 7.63165 18.1075 7.57846 17.8374 7.53914C17.7778 7.53021 17.7193 7.51931 17.6592 7.51185C17.3661 7.47643 17.0704 7.45213 16.768 7.45183C16.7661 7.45183 16.7643 7.45183 16.7625 7.45183H11.175C11.1713 7.45183 11.1678 7.45183 11.1641 7.45183C10.864 7.45241 10.5691 7.47668 10.2783 7.51185C10.217 7.51946 10.1572 7.53 10.0964 7.53914C9.82892 7.57826 9.56641 7.63056 9.30887 7.69738C9.30351 7.69881 9.29784 7.69957 9.2925 7.70101C9.2888 7.70198 9.28528 7.70368 9.28158 7.70465C7.46931 8.18222 5.927 9.32114 4.9309 10.8531C3.15573 10.2266 1.86251 8.60565 1.86251 6.59697V5.58933ZM11.1659 9.31433C11.169 9.31433 11.1719 9.31433 11.175 9.31433H16.7625C16.7637 9.31433 16.7649 9.31433 16.7661 9.31433C17.0126 9.31449 17.2527 9.33649 17.49 9.36708C17.5517 9.37497 17.6128 9.38452 17.6737 9.39436C17.8805 9.42801 18.0851 9.46983 18.2831 9.52532C18.3113 9.53316 18.3405 9.53888 18.3685 9.54714C18.6092 9.61873 18.8417 9.70538 19.067 9.80724C19.0694 9.80834 19.0718 9.80977 19.0743 9.81088C19.0787 9.81289 19.0825 9.81613 19.087 9.81815C19.3161 9.92291 19.5382 10.041 19.749 10.1746C20.6087 10.7197 21.3062 11.4945 21.7625 12.4136C21.7661 12.4173 21.7698 12.421 21.7734 12.4246C22.0082 12.9037 22.1759 13.4219 22.2663 13.9688H5.67299C5.76351 13.4212 5.93061 12.9024 6.1659 12.4227C6.16895 12.4197 6.17198 12.4167 6.17499 12.4136C6.63135 11.4945 7.32876 10.7197 8.18846 10.1746C8.3963 10.0429 8.61574 9.92731 8.84142 9.82361C8.85379 9.81798 8.86539 9.81096 8.8778 9.80542C9.09975 9.70542 9.3285 9.61961 9.56532 9.54896C9.59867 9.53909 9.63357 9.53277 9.66718 9.5235C9.8607 9.46974 10.0601 9.42728 10.2619 9.39436C10.3243 9.38427 10.3862 9.37513 10.4493 9.36708C10.6843 9.33687 10.922 9.31472 11.1659 9.31433ZM5.58932 15.8313H22.3482V41.9063H5.58932V15.8313ZM13.9688 17.6938C11.9212 17.6938 10.2438 19.373 10.2438 21.4206V36.3242C10.2438 38.3717 11.9212 40.0419 13.9688 40.0419C16.0163 40.0419 17.6956 38.3717 17.6956 36.3242V21.4206C17.6956 19.373 16.0163 17.6938 13.9688 17.6938ZM13.9688 19.5563C15.0167 19.5563 15.8331 20.3726 15.8331 21.4206V36.3242C15.8331 37.3721 15.0167 38.1794 13.9688 38.1794C12.9208 38.1794 12.1063 37.3721 12.1063 36.3242V21.4206C12.1063 20.3726 12.9208 19.5563 13.9688 19.5563ZM13.9688 20.493C13.8465 20.4925 13.7253 20.5161 13.6121 20.5625C13.4989 20.6088 13.396 20.677 13.3092 20.7631C13.2224 20.8493 13.1534 20.9517 13.1061 21.0645C13.0589 21.1773 13.0343 21.2983 13.0339 21.4206V36.3242C13.0343 36.4465 13.0589 36.5675 13.1061 36.6803C13.1534 36.7931 13.2224 36.8955 13.3092 36.9816C13.396 37.0678 13.4989 37.136 13.6121 37.1823C13.7253 37.2287 13.8465 37.2523 13.9688 37.2518C14.2145 37.2509 14.4499 37.1528 14.6236 36.9791C14.7974 36.8053 14.8954 36.5699 14.8964 36.3242V21.4206C14.8954 21.1749 14.7974 20.9395 14.6236 20.7657C14.4499 20.592 14.2145 20.4939 13.9688 20.493ZM5.67117 43.7688H22.2682C21.8316 46.4296 19.5549 48.4305 16.7607 48.4305H11.1786C8.38442 48.4305 6.10775 46.4296 5.67117 43.7688Z" fill="#2B180A"/>
</svg>
